<?xml version="1.0" standalone="no"?>
<!DOCTYPE svg PUBLIC "-//W3C//DTD SVG 20010904//EN"
 "http://www.w3.org/TR/2001/REC-SVG-20010904/DTD/svg10.dtd">
<svg version="1.0" xmlns="http://www.w3.org/2000/svg"
 width="736.000000pt" height="736.000000pt" viewBox="0 0 736.000000 736.000000"
 preserveAspectRatio="xMidYMid meet">
<metadata>
Created by potrace 1.14, written by Peter Selinger 2001-2017
</metadata>
<g transform="translate(0.000000,736.000000) scale(0.100000,-0.100000)"
fill="#000000" stroke="none">
<path d="M4589 5806 c-3 -190 0 -4078 3 -4081 3 -3 17 -5 31 -5 47 0 80 -1
175 -3 50 -1 92 2 92 6 0 5 4 5 10 2 5 -3 35 -5 67 -5 61 1 105 0 191 -3 28
-2 52 1 52 6 0 4 4 5 10 2 8 -5 62 -6 145 -3 17 1 32 5 36 10 3 4 2 33 -1 63
-3 30 -3 60 0 66 4 5 4 29 0 53 -3 23 -4 48 -2 54 2 7 38 -23 80 -66 116 -117
134 -130 257 -191 128 -63 223 -84 370 -82 77 1 112 5 165 17 14 3 35 8 48 10
63 12 253 98 272 124 3 3 25 20 50 37 64 45 167 156 223 240 26 40 47 76 47
81 0 5 7 15 15 22 8 6 14 15 13 18 -1 4 10 32 24 62 25 54 37 86 39 105 0 6 5
15 9 20 5 6 12 26 15 45 3 19 9 44 12 55 3 11 8 31 10 45 2 14 7 39 10 55 10
51 13 1186 3 1253 -15 97 -19 119 -30 146 -5 15 -7 26 -5 26 10 0 -59 178 -97
249 -62 116 -93 160 -178 250 -174 185 -395 284 -640 285 -128 1 -179 -5 -259
-29 -62 -19 -164 -66 -169 -77 -2 -4 -8 -8 -14 -8 -20 0 -113 -75 -190 -153
-43 -43 -78 -75 -79 -70 0 4 0 40 1 78 0 39 0 86 -1 105 0 19 -1 42 0 50 0 8
0 58 0 110 -1 52 -1 102 0 110 1 8 1 31 0 50 -1 19 -1 42 0 50 2 47 1 169 -3
193 -2 15 1 30 6 33 4 3 6 9 4 13 -3 4 -5 25 -6 47 -1 78 -2 239 -1 254 1 8 1
31 0 50 -1 19 -1 42 0 50 2 47 1 168 -2 185 -4 20 -12 20 -405 21 l-402 1 -1
-31z m1356 -1675 c0 -2 7 -4 16 -6 47 -9 115 -50 160 -96 70 -72 111 -158 127
-269 9 -58 8 -1072 0 -1125 -11 -69 -53 -176 -82 -213 -35 -43 -87 -91 -105
-97 -12 -3 -21 -11 -21 -16 0 -5 -8 -9 -18 -9 -10 0 -22 -3 -26 -7 -3 -4 -12
-8 -19 -9 -7 -1 -25 -5 -42 -8 -37 -8 -140 -8 -178 -1 -149 29 -273 149 -323
310 -16 50 -27 110 -29 160 -4 56 -6 212 -4 245 1 8 0 31 0 50 -1 19 -2 71 -1
115 0 44 -1 92 -4 108 -2 15 1 30 6 33 4 3 6 9 3 14 -12 20 -4 373 10 438 7
28 10 52 7 52 -2 0 1 7 8 15 7 8 9 15 6 15 -4 0 10 32 30 70 38 72 119 164
154 175 11 4 20 11 20 16 0 5 8 9 18 9 10 0 23 5 30 12 7 7 12 9 12 6 0 -4 17
-1 38 6 30 11 207 16 207 7z"/>
<path d="M1208 4775 c-2 -2 -22 -6 -45 -9 -24 -3 -62 -9 -85 -12 -157 -23
-396 -135 -521 -246 -33 -29 -63 -55 -66 -58 -9 -7 -83 -101 -107 -135 -23
-34 -85 -165 -78 -165 3 0 0 -8 -5 -17 -5 -10 -12 -31 -15 -48 -3 -16 -10 -48
-15 -70 -14 -57 -11 -255 6 -328 37 -165 130 -312 274 -432 79 -66 397 -245
435 -245 8 0 14 -5 14 -11 0 -5 4 -8 9 -4 5 3 12 1 16 -5 3 -5 12 -10 19 -10
8 0 35 -10 62 -22 27 -12 51 -23 54 -23 3 -1 18 -7 33 -13 16 -7 52 -21 80
-33 213 -87 301 -134 375 -203 54 -50 75 -99 72 -171 -1 -39 -27 -106 -52
-135 -19 -23 -88 -74 -88 -65 0 4 -6 3 -12 -2 -15 -12 -69 -30 -113 -38 -34
-6 -152 -7 -175 -2 -8 2 -31 7 -50 11 -107 26 -229 154 -270 286 -7 25 -18 50
-23 57 -5 7 -6 16 -3 21 2 4 0 27 -6 49 -9 39 -12 41 -35 32 -14 -5 -44 -12
-67 -15 -22 -2 -90 -14 -151 -25 -60 -12 -121 -22 -135 -24 -14 -2 -25 -4 -25
-5 0 -1 -11 -3 -25 -6 -14 -2 -47 -8 -75 -14 -27 -5 -61 -11 -75 -14 -14 -2
-43 -8 -65 -12 -22 -4 -47 -8 -55 -8 -8 -1 -14 -5 -13 -11 1 -5 4 -30 8 -55
15 -108 121 -369 182 -449 143 -188 286 -303 465 -374 54 -21 82 -31 163 -53
130 -36 418 -45 585 -19 19 3 51 8 70 11 19 3 53 10 75 16 22 7 42 12 45 12
29 5 180 62 180 68 0 4 7 8 15 8 36 0 192 107 270 186 29 29 71 83 95 119 23
36 43 65 44 65 1 0 1 -97 1 -216 0 -118 2 -220 6 -225 7 -12 269 -18 269 -6 0
5 4 5 10 2 7 -5 168 -7 280 -5 8 0 54 -1 103 -2 48 -2 87 1 87 5 0 5 5 5 10 2
8 -5 468 -7 760 -5 8 1 54 -1 103 -2 48 -2 87 1 87 5 0 5 4 5 10 2 7 -5 159
-7 280 -5 8 0 36 0 62 -1 27 -1 50 0 54 3 3 3 6 148 7 322 l2 315 -215 1
c-118 0 -222 1 -230 1 -8 0 -116 0 -240 0 -124 0 -232 0 -240 0 -8 0 -116 0
-240 0 -124 0 -232 0 -240 0 -24 0 -463 0 -482 0 -10 0 -50 -1 -89 -2 -49 -1
-74 3 -80 12 -4 7 -6 16 -4 19 16 26 23 211 11 295 -11 81 -47 205 -59 205 -4
0 -5 5 -2 10 3 6 1 10 -4 10 -6 0 -11 5 -11 11 0 18 -84 131 -142 191 -139
143 -336 250 -788 427 -124 49 -330 150 -330 162 0 5 -5 9 -12 9 -17 0 -88 81
-88 102 0 10 -4 18 -8 18 -23 0 -18 128 8 182 92 196 383 232 556 69 71 -68
131 -184 150 -291 5 -29 15 -75 17 -77 2 -1 20 2 42 7 22 5 51 11 65 13 186
34 259 48 280 52 14 3 39 7 55 9 17 3 68 12 115 21 47 10 97 18 111 20 38 3
51 14 44 35 -3 10 -8 31 -10 46 -7 47 -10 58 -18 72 -5 6 -6 16 -3 20 3 5 -1
20 -9 35 -8 15 -12 27 -10 27 6 0 -52 135 -82 188 -73 133 -185 259 -305 345
-36 26 -70 47 -76 47 -6 0 -12 3 -14 8 -4 10 -133 71 -198 94 -64 22 -141 41
-220 54 -37 6 -327 14 -332 9z"/>
</g>
</svg>
