<svg width="35" height="35" viewBox="0 0 35 35" fill="none" xmlns="http://www.w3.org/2000/svg">
<g clip-path="url(#clip0_1_57)">
<path d="M17.5 0C7.8505 0 0 7.8505 0 17.5C0 27.1495 7.8505 35 17.5 35C27.1495 35 35 27.1495 35 17.5C35 7.8505 27.1495 0 17.5 0ZM17.5 31.8182C9.60485 31.8182 3.18182 25.395 3.18182 17.5C3.18182 9.60495 9.60485 3.18182 17.5 3.18182C25.3952 3.18182 31.8182 9.60495 31.8182 17.5C31.8182 25.395 25.395 31.8182 17.5 31.8182Z" fill="#237C72"/>
<path d="M24.0622 11.3128L15.0625 20.3124L10.9378 16.1876C10.3166 15.5664 9.30927 15.5663 8.68796 16.1875C8.06666 16.8088 8.06666 17.8161 8.68796 18.4374L13.9375 23.6872C14.2359 23.9855 14.6405 24.1532 15.0624 24.1532C15.0625 24.1532 15.0624 24.1532 15.0625 24.1532C15.4844 24.1532 15.8891 23.9855 16.1874 23.6873L26.3121 13.5628C26.9334 12.9415 26.9334 11.9343 26.3121 11.313C25.6908 10.6917 24.6835 10.6915 24.0622 11.3128Z" fill="#237C72"/>
</g>
<defs>
<clipPath id="clip0_1_57">
<rect width="35" height="35" fill="white"/>
</clipPath>
</defs>
</svg>
