<svg width="60" height="60" viewBox="0 0 60 60" fill="none" xmlns="http://www.w3.org/2000/svg">
<circle cx="30" cy="30" r="30" fill="#237C72"/>
<path d="M36.6375 31.9688H31.0125V26.2312C31.0125 25.6687 30.5625 25.2188 30 25.2188C29.4375 25.2188 28.9875 25.6687 28.9875 26.2312V31.9688H28.4812C27.9187 31.9688 27.4688 32.4187 27.4688 32.9812C27.4688 33.5437 27.9187 33.9937 28.4812 33.9937H28.9875V34.5C28.9875 35.0625 29.4375 35.5125 30 35.5125C30.5625 35.5125 31.0125 35.0625 31.0125 34.5V33.9375H36.6375C37.2 33.9375 37.65 33.4875 37.65 32.925C37.65 32.3625 37.1437 31.9688 36.6375 31.9688Z" fill="#FDFDFD"/>
<path d="M45.6937 22.4625C45.6937 19.4812 43.275 17.0062 40.2375 17.0062C38.7187 17.0062 37.3125 17.625 36.3562 18.6937C34.725 17.9062 32.8687 17.4562 30.9562 17.2875V14.7H32.925C33.4875 14.7 33.9375 14.25 33.9375 13.6875C33.9375 13.125 33.4875 12.675 32.925 12.675H27.0187C26.5125 12.7312 26.0625 13.125 26.0625 13.6875C26.0625 14.25 26.5125 14.7 27.075 14.7H29.0437V17.3437C27.1312 17.4562 25.3312 17.9625 23.6437 18.75C22.6312 17.6812 21.225 17.0625 19.7625 17.0625C16.7812 17.0625 14.3062 19.4812 14.3062 22.5187C14.3062 24.0937 14.9812 25.5562 16.1625 26.5687C15.4312 28.3687 15.0375 30.2812 15.0375 32.3062C15.0375 40.575 21.7875 47.325 30.0562 47.325C38.325 47.325 45.075 40.575 45.075 32.3062C45.075 30.2812 44.6812 28.3125 43.95 26.5687C45.0187 25.5 45.6937 24.0375 45.6937 22.4625ZM40.2937 19.0312C42.2062 19.0312 43.7812 20.6062 43.7812 22.5187C43.7812 23.3625 43.5 24.0937 42.9937 24.7125C41.8125 22.6875 40.1812 21 38.2687 19.7625C38.775 19.2562 39.5062 19.0312 40.2937 19.0312ZM16.275 22.4625C16.275 20.55 17.85 18.975 19.7625 18.975C20.55 18.975 21.2812 19.2562 21.8437 19.7062C19.875 21 18.2437 22.6875 17.0625 24.7125C16.5562 24.0937 16.275 23.3062 16.275 22.4625ZM30 45.3562C22.8 45.3562 16.95 39.5062 16.95 32.3062C16.95 25.1062 22.8 19.2562 30 19.2562C37.2 19.2562 43.05 25.1062 43.05 32.3062C43.05 39.45 37.2 45.3562 30 45.3562Z" fill="#FDFDFD"/>
</svg>
