<svg width="32" height="32" viewBox="0 0 32 32" fill="none" xmlns="http://www.w3.org/2000/svg">
<g clip-path="url(#clip0_107_23)">
<path d="M16 0C7.17752 0 0 7.17752 0 16C0 24.8225 7.17752 32 16 32C24.8225 32 32 24.8225 32 16C32 7.17752 24.8225 0 16 0ZM16 29.7143C8.43797 29.7143 2.28571 23.562 2.28571 16C2.28571 8.43797 8.43797 2.28571 16 2.28571C23.562 2.28571 29.7143 8.43797 29.7143 16C29.7143 23.562 23.562 29.7143 16 29.7143Z" fill="#444444"/>
<path d="M20.9031 11.0969C20.4568 10.6505 19.7332 10.6505 19.2869 11.0969L16 14.3837L12.713 11.0967C12.2667 10.6504 11.5431 10.6504 11.0968 11.0967C10.6504 11.5431 10.6504 12.2666 11.0968 12.713L14.3837 16L11.0968 19.2869C10.6504 19.7333 10.6504 20.4569 11.0968 20.9032C11.3199 21.1263 11.6124 21.2379 11.9049 21.2379C12.1973 21.2379 12.4898 21.1263 12.713 20.9032L16 17.6162L19.287 20.9032C19.5101 21.1263 19.8027 21.2379 20.0951 21.2379C20.3875 21.2379 20.68 21.1263 20.9032 20.9032C21.3496 20.4569 21.3496 19.7333 20.9032 19.2869L17.6162 16L20.9032 12.713C21.3495 12.2668 21.3495 11.5431 20.9031 11.0969Z" fill="#444444"/>
</g>
<defs>
<clipPath id="clip0_107_23">
<rect width="32" height="32" fill="white"/>
</clipPath>
</defs>
</svg>
