<svg width="32" height="32" viewBox="0 0 32 32" fill="none" xmlns="http://www.w3.org/2000/svg">
<g clip-path="url(#clip0_1_146)">
<path d="M32.004 16.1C32.004 7.208 24.84 0 16.004 0C7.164 0.002 0 7.208 0 16.102C0 24.136 5.852 30.796 13.5 32.004V20.754H9.44V16.102H13.504V12.552C13.504 8.518 15.894 6.29 19.548 6.29C21.3 6.29 23.13 6.604 23.13 6.604V10.564H21.112C19.126 10.564 18.506 11.806 18.506 13.08V16.1H22.942L22.234 20.752H18.504V32.002C26.152 30.794 32.004 24.134 32.004 16.1Z" fill="#EBEBEB"/>
</g>
<defs>
<clipPath id="clip0_1_146">
<rect width="32" height="32" fill="white"/>
</clipPath>
</defs>
</svg>
