<svg width="60" height="60" viewBox="0 0 60 60" fill="none" xmlns="http://www.w3.org/2000/svg">
<circle cx="30" cy="30" r="30" fill="#237C72"/>
<path d="M30 12.7313C22.1813 12.7313 15.7688 18.9188 15.7688 26.4563C15.7688 32.475 24.375 42.4313 28.0875 46.4813C28.5938 47.0438 29.2688 47.325 30 47.325C30.7313 47.325 31.4063 47.0438 31.9125 46.4813C35.625 42.4875 44.2313 32.475 44.2313 26.4563C44.2313 18.8625 37.8188 12.7313 30 12.7313ZM30.45 45.1313C30.1688 45.4125 29.775 45.4125 29.55 45.1313C26.7938 42.15 17.7375 31.9125 17.7375 26.4563C17.7375 19.9313 23.25 14.7 30 14.7C36.75 14.7 42.2625 19.9875 42.2625 26.4563C42.2625 31.9125 33.2063 42.0938 30.45 45.1313Z" fill="#FDFDFD"/>
<path d="M30 20.8312C26.6813 20.8312 23.925 23.5312 23.925 26.9062C23.925 30.225 26.625 32.9812 30 32.9812C33.375 32.9812 36.075 30.2812 36.075 26.9062C36.075 23.5312 33.3188 20.8312 30 20.8312ZM30 30.9562C27.75 30.9562 25.8938 29.1 25.8938 26.85C25.8938 24.6 27.75 22.7437 30 22.7437C32.25 22.7437 34.1063 24.6 34.1063 26.85C34.1063 29.1 32.25 30.9562 30 30.9562Z" fill="#FDFDFD"/>
</svg>
