<svg width="32" height="32" viewBox="0 0 32 32" fill="none" xmlns="http://www.w3.org/2000/svg">
<g clip-path="url(#clip0_1_142)">
<path d="M15.9997 0C7.16344 0 6.10352e-05 7.16359 6.10352e-05 15.9998C6.10352e-05 24.8359 7.16344 32 15.9997 32C24.8359 32 31.9998 24.8359 31.9998 15.9998C31.9998 7.16359 24.8359 0 15.9997 0ZM16 5.6199L25.4682 11.524H6.53186L16 5.6199ZM25.5861 20.952H25.5852C25.5852 21.899 24.8177 22.6664 23.8708 22.6664H8.12921C7.18221 22.6664 6.41484 21.8989 6.41484 20.952V11.8996C6.41484 11.7995 6.42509 11.7021 6.44173 11.6064L15.488 17.2473C15.4991 17.2543 15.5109 17.2589 15.5223 17.2653C15.5343 17.272 15.5465 17.2784 15.5586 17.2844C15.6225 17.3174 15.6883 17.344 15.7556 17.3613C15.7626 17.3633 15.7695 17.3641 15.7764 17.3657C15.8502 17.3831 15.925 17.394 15.9997 17.394H16.0002C16.0008 17.394 16.0013 17.394 16.0013 17.394C16.076 17.394 16.1507 17.3834 16.2245 17.3657C16.2315 17.364 16.2384 17.3633 16.2453 17.3613C16.3125 17.344 16.3781 17.3174 16.4424 17.2844C16.4545 17.2784 16.4667 17.272 16.4786 17.2653C16.4899 17.2589 16.5019 17.2543 16.513 17.2473L25.5592 11.6064C25.5759 11.7021 25.5861 11.7993 25.5861 11.8996V20.952Z" fill="#EBEBEB"/>
</g>
<defs>
<clipPath id="clip0_1_142">
<rect width="32" height="32" fill="white"/>
</clipPath>
</defs>
</svg>
