<svg width="20" height="20" viewBox="0 0 20 20" fill="none" xmlns="http://www.w3.org/2000/svg">
<path d="M7.54801 15.484C7.10201 15.048 7.06701 14.441 7.54801 13.908L11.295 10L7.54801 6.092C7.06701 5.559 7.10201 4.951 7.54801 4.518C7.99301 4.082 8.74501 4.11 9.16301 4.518C9.58101 4.924 13.665 9.213 13.665 9.213C13.7709 9.31514 13.8551 9.43755 13.9126 9.57294C13.9701 9.70833 13.9997 9.85391 13.9997 10.001C13.9997 10.1481 13.9701 10.2937 13.9126 10.4291C13.8551 10.5645 13.7709 10.6869 13.665 10.789C13.665 10.789 9.58101 15.076 9.16301 15.484C8.74501 15.893 7.99301 15.92 7.54801 15.484Z" fill="#237C72"/>
</svg>
