<svg width="24" height="24" viewBox="0 0 24 24" fill="none" xmlns="http://www.w3.org/2000/svg">
<g clip-path="url(#clip0_109_44)">
<path d="M12 0C5.37272 0 0 5.37272 0 12C0 18.6273 5.37272 24 12 24C18.6273 24 24 18.6273 24 12C24 5.37272 18.6273 0 12 0ZM12 22C6.47728 22 2.00002 17.5227 2.00002 12C2.00002 6.47728 6.47728 2.00002 12 2.00002C17.5227 2.00002 22 6.47728 22 12C22 17.5227 17.5227 22 12 22Z" fill="#444444"/>
<path d="M10.7071 6.29289C10.3166 5.90237 9.6834 5.90237 9.29289 6.29289C8.90237 6.6834 8.90237 7.31659 9.29289 7.70711L13.5858 12L9.29289 16.2929C8.90237 16.6834 8.90237 17.3166 9.29289 17.7071C9.6834 18.0977 10.3166 18.0977 10.7071 17.7071L15.7071 12.7071C16.0976 12.3166 16.0976 11.6834 15.7071 11.2929L10.7071 6.29289Z" fill="#444444"/>
</g>
<defs>
<clipPath id="clip0_109_44">
<rect width="24" height="24" fill="white"/>
</clipPath>
</defs>
</svg>
