<svg width="60" height="60" viewBox="0 0 60 60" fill="none" xmlns="http://www.w3.org/2000/svg">
<circle cx="30" cy="30" r="30" fill="#237C72"/>
<path d="M39.6187 46.4813C35.0062 46.4813 28.3687 43.1625 22.2937 37.3688C14.025 29.4938 10.4812 20.7188 14.0812 16.8938C14.25 16.725 14.4187 16.6125 14.6437 16.5L19.3687 13.8563C20.4375 13.2938 21.7875 13.575 22.4625 14.5313L25.8937 19.425C26.2312 19.9313 26.4 20.55 26.2875 21.1125C26.175 21.7313 25.8375 22.2375 25.3312 22.575L23.25 23.925C23.1375 23.9813 23.1375 24.0375 23.1375 24.0938C23.1375 24.15 23.1375 24.2063 23.1937 24.2625C24.7125 26.5125 29.0437 32.25 35.9062 36.3563C36.075 36.4688 36.3562 36.4125 36.4687 36.3L37.9312 34.3313C38.6625 33.3188 40.0687 33.0938 41.1375 33.7688L46.2562 37.0313C47.325 37.7063 47.6625 39.0563 46.9875 40.125L44.175 44.625C44.0625 44.85 43.8937 45.0188 43.725 45.1313C42.6562 46.0875 41.25 46.4813 39.6187 46.4813ZM20.55 15.4875C20.4937 15.4875 20.4375 15.4875 20.325 15.5438L15.6 18.1875C15.5437 18.2438 15.5437 18.2438 15.4875 18.2438C13.125 20.775 15.825 28.4813 23.7 35.9625C31.575 43.4438 39.7312 46.0313 42.4312 43.725C42.4312 43.725 42.4312 43.725 42.4875 43.6688L45.3 39.1688C45.3562 39.0563 45.3562 38.8875 45.1875 38.775L40.0687 35.5125C39.9 35.4 39.6187 35.4563 39.5062 35.5688L38.0437 37.5375C37.3125 38.4938 35.9625 38.775 34.8937 38.1563C27.6375 33.825 23.1375 27.8063 21.5625 25.3875C21.225 24.8813 21.1125 24.3188 21.225 23.7C21.3375 23.1375 21.675 22.575 22.1812 22.2938L24.2625 20.8875C24.375 20.8313 24.375 20.775 24.375 20.7188C24.375 20.6625 24.375 20.6063 24.3187 20.4938L20.8875 15.6C20.8312 15.5438 20.6625 15.4875 20.55 15.4875Z" fill="#FDFDFD"/>
</svg>
