<svg width="92" height="81" viewBox="0 0 92 81" fill="none" xmlns="http://www.w3.org/2000/svg">
<path d="M21.528 54.92C21.528 53.96 21.072 53.168 20.16 52.544C19.296 51.872 18.168 51.272 16.776 50.744C15.384 50.168 13.92 49.568 12.384 48.944C10.848 48.272 9.36 47.48 7.92 46.568C6.528 45.656 5.4 44.528 4.536 43.184C3.672 41.792 3.24 40.112 3.24 38.144C3.24 38.144 3.552 38.144 4.176 38.144C4.848 38.144 5.64 38.144 6.552 38.144C7.512 38.144 8.472 38.144 9.432 38.144C10.392 38.144 11.184 38.144 11.808 38.144C12.48 38.144 12.816 38.144 12.816 38.144C12.816 39.104 13.248 39.92 14.112 40.592C15.024 41.216 16.176 41.816 17.568 42.392C18.96 42.92 20.424 43.52 21.96 44.192C23.544 44.816 25.032 45.584 26.424 46.496C27.816 47.408 28.944 48.536 29.808 49.88C30.72 51.224 31.176 52.904 31.176 54.92C31.176 54.92 30.84 54.92 30.168 54.92C29.496 54.92 28.68 54.92 27.72 54.92C26.808 54.92 25.872 54.92 24.912 54.92C23.952 54.92 23.136 54.92 22.464 54.92C21.84 54.92 21.528 54.92 21.528 54.92ZM16.776 66.152V58.16C18.216 58.16 19.368 57.872 20.232 57.296C21.096 56.672 21.528 55.88 21.528 54.92H31.176C31.176 57.176 30.576 59.168 29.376 60.896C28.224 62.576 26.568 63.872 24.408 64.784C22.296 65.696 19.752 66.152 16.776 66.152ZM3.24 38.144C3.24 35.984 3.816 34.04 4.968 32.312C6.168 30.584 7.8 29.24 9.864 28.28C11.928 27.272 14.232 26.768 16.776 26.768V34.688C15.672 34.688 14.736 35.024 13.968 35.696C13.2 36.368 12.816 37.184 12.816 38.144H3.24ZM11.52 52.328C11.76 54.2 12.36 55.64 13.32 56.648C14.28 57.656 15.456 58.16 16.848 58.16V66.152C14.304 66.152 12.024 65.672 10.008 64.712C7.992 63.704 6.336 62.288 5.04 60.464C3.792 58.592 2.952 56.432 2.52 53.984L11.52 52.328ZM22.104 40.592C21.864 38.672 21.264 37.208 20.304 36.2C19.344 35.192 18.168 34.688 16.776 34.688V26.768C19.32 26.768 21.6 27.272 23.616 28.28C25.632 29.24 27.288 30.632 28.584 32.456C29.88 34.232 30.72 36.392 31.104 38.936L22.104 40.592ZM57.3497 28.064V13.52H67.5017V28.064H57.3497ZM67.5017 65H57.3497V27.92H67.5017V65ZM88.3817 51.824H78.2297V41.096H88.3817V51.824ZM78.2297 41.096C78.2297 39.128 77.7737 37.592 76.8617 36.488C75.9497 35.336 74.7017 34.76 73.1177 34.76L76.0697 26.768C78.4217 26.768 80.5097 27.392 82.3337 28.64C84.2057 29.888 85.6697 31.592 86.7257 33.752C87.8297 35.912 88.3817 38.36 88.3817 41.096H78.2297ZM64.3337 41.6C64.3337 38.768 64.8377 36.248 65.8457 34.04C66.9017 31.784 68.3177 30.008 70.0937 28.712C71.8697 27.416 73.8617 26.768 76.0697 26.768L73.1177 34.76C71.4377 34.76 70.0697 35.384 69.0137 36.632C68.0057 37.88 67.5017 39.536 67.5017 41.6H64.3337ZM78.2297 51.824H88.3817C88.3817 54.56 87.8297 57.008 86.7257 59.168C85.6697 61.328 84.2057 63.032 82.3337 64.28C80.5097 65.528 78.4217 66.152 76.0697 66.152L73.1177 58.16C74.7017 58.16 75.9497 57.608 76.8617 56.504C77.7737 55.352 78.2297 53.792 78.2297 51.824ZM64.3337 51.248H67.5017C67.5017 53.36 68.0057 55.04 69.0137 56.288C70.0697 57.536 71.4377 58.16 73.1177 58.16L76.0697 66.152C73.8617 66.152 71.8697 65.504 70.0937 64.208C68.3177 62.864 66.9017 61.088 65.8457 58.88C64.8377 56.624 64.3337 54.08 64.3337 51.248Z" fill="white"/>
<path d="M30.0797 65.504V57.512H56.6477V65.504H30.0797Z" fill="white"/>
<path d="M30.0797 65.504V57.512H56.6477V65.504H30.0797Z" fill="#237C74"/>
</svg>
