<svg width="434" height="81" viewBox="0 0 434 81" fill="none" xmlns="http://www.w3.org/2000/svg">
<path d="M21.528 54.92C21.528 53.96 21.072 53.168 20.16 52.544C19.296 51.872 18.168 51.272 16.776 50.744C15.384 50.168 13.92 49.568 12.384 48.944C10.848 48.272 9.36 47.48 7.92 46.568C6.528 45.656 5.4 44.528 4.536 43.184C3.672 41.792 3.24 40.112 3.24 38.144C3.24 38.144 3.552 38.144 4.176 38.144C4.848 38.144 5.64 38.144 6.552 38.144C7.512 38.144 8.472 38.144 9.432 38.144C10.392 38.144 11.184 38.144 11.808 38.144C12.48 38.144 12.816 38.144 12.816 38.144C12.816 39.104 13.248 39.92 14.112 40.592C15.024 41.216 16.176 41.816 17.568 42.392C18.96 42.92 20.424 43.52 21.96 44.192C23.544 44.816 25.032 45.584 26.424 46.496C27.816 47.408 28.944 48.536 29.808 49.88C30.72 51.224 31.176 52.904 31.176 54.92C31.176 54.92 30.84 54.92 30.168 54.92C29.496 54.92 28.68 54.92 27.72 54.92C26.808 54.92 25.872 54.92 24.912 54.92C23.952 54.92 23.136 54.92 22.464 54.92C21.84 54.92 21.528 54.92 21.528 54.92ZM16.776 66.152V58.16C18.216 58.16 19.368 57.872 20.232 57.296C21.096 56.672 21.528 55.88 21.528 54.92H31.176C31.176 57.176 30.576 59.168 29.376 60.896C28.224 62.576 26.568 63.872 24.408 64.784C22.296 65.696 19.752 66.152 16.776 66.152ZM3.24 38.144C3.24 35.984 3.816 34.04 4.968 32.312C6.168 30.584 7.8 29.24 9.864 28.28C11.928 27.272 14.232 26.768 16.776 26.768V34.688C15.672 34.688 14.736 35.024 13.968 35.696C13.2 36.368 12.816 37.184 12.816 38.144H3.24ZM11.52 52.328C11.76 54.2 12.36 55.64 13.32 56.648C14.28 57.656 15.456 58.16 16.848 58.16V66.152C14.304 66.152 12.024 65.672 10.008 64.712C7.992 63.704 6.336 62.288 5.04 60.464C3.792 58.592 2.952 56.432 2.52 53.984L11.52 52.328ZM22.104 40.592C21.864 38.672 21.264 37.208 20.304 36.2C19.344 35.192 18.168 34.688 16.776 34.688V26.768C19.32 26.768 21.6 27.272 23.616 28.28C25.632 29.24 27.288 30.632 28.584 32.456C29.88 34.232 30.72 36.392 31.104 38.936L22.104 40.592ZM30.9572 65V27.92H41.1092V65H30.9572ZM35.9972 22.952C34.3652 22.952 32.9972 22.424 31.8932 21.368C30.8372 20.264 30.3092 18.896 30.3092 17.264C30.3092 15.632 30.8372 14.264 31.8932 13.16C32.9972 12.008 34.3652 11.432 35.9972 11.432C37.6292 11.432 38.9972 12.008 40.1012 13.16C41.2532 14.264 41.8292 15.632 41.8292 17.264C41.8292 18.896 41.2532 20.264 40.1012 21.368C38.9972 22.424 37.6292 22.952 35.9972 22.952ZM43.2872 65V27.92H53.4392V65H43.2872ZM62.7272 65V41.024H72.8792V65H62.7272ZM50.2712 41.6C50.2712 38.768 50.7272 36.248 51.6392 34.04C52.5992 31.784 53.8952 30.008 55.5272 28.712C57.1592 27.416 58.9832 26.768 60.9992 26.768L58.0472 34.76C56.7032 34.76 55.5992 35.384 54.7352 36.632C53.8712 37.88 53.4392 39.536 53.4392 41.6H50.2712ZM62.7272 41.024C62.7272 39.104 62.2952 37.592 61.4312 36.488C60.6152 35.336 59.4872 34.76 58.0472 34.76L60.9992 26.768C63.3032 26.768 65.3192 27.392 67.0472 28.64C68.8232 29.888 70.2392 31.592 71.2952 33.752C72.3512 35.864 72.8792 38.288 72.8792 41.024H62.7272ZM82.0952 65V41.024H92.2472V65H82.0952ZM69.6392 41.6C69.6392 38.768 70.0952 36.248 71.0072 34.04C71.9672 31.784 73.2632 30.008 74.8952 28.712C76.5272 27.416 78.3752 26.768 80.4392 26.768L77.4872 34.76C76.0952 34.76 74.9672 35.384 74.1032 36.632C73.2872 37.88 72.8792 39.536 72.8792 41.6H69.6392ZM82.0952 41.024C82.0952 39.104 81.6872 37.592 80.8712 36.488C80.0552 35.336 78.9272 34.76 77.4872 34.76L80.4392 26.768C82.6952 26.768 84.7112 27.392 86.4872 28.64C88.2632 29.888 89.6552 31.592 90.6632 33.752C91.7192 35.864 92.2472 38.288 92.2472 41.024H82.0952ZM92.0559 64.856H102.208V79.4H92.0559V64.856ZM102.208 27.92V65H92.0559V27.92H102.208ZM123.088 41.096V51.824H112.936V41.096H123.088ZM112.936 51.824H123.088C123.088 54.56 122.536 57.008 121.432 59.168C120.376 61.328 118.912 63.032 117.04 64.28C115.216 65.528 113.128 66.152 110.776 66.152L107.824 58.16C109.408 58.16 110.656 57.608 111.568 56.504C112.48 55.352 112.936 53.792 112.936 51.824ZM99.0399 51.248H102.208C102.208 53.36 102.712 55.04 103.72 56.288C104.776 57.536 106.144 58.16 107.824 58.16L110.776 66.152C108.568 66.152 106.576 65.504 104.8 64.208C103.024 62.864 101.608 61.088 100.552 58.88C99.5439 56.624 99.0399 54.08 99.0399 51.248ZM112.936 41.096C112.936 39.128 112.48 37.592 111.568 36.488C110.656 35.336 109.408 34.76 107.824 34.76L110.776 26.768C113.128 26.768 115.216 27.392 117.04 28.64C118.912 29.888 120.376 31.592 121.432 33.752C122.536 35.912 123.088 38.36 123.088 41.096H112.936ZM99.0399 41.6C99.0399 38.768 99.5439 36.248 100.552 34.04C101.608 31.784 103.024 30.008 104.8 28.712C106.576 27.416 108.568 26.768 110.776 26.768L107.824 34.76C106.144 34.76 104.776 35.384 103.72 36.632C102.712 37.88 102.208 39.536 102.208 41.6H99.0399ZM123.615 65V12.368H133.767V65H123.615ZM136.881 78.104L139.113 70.112C141.081 70.64 142.641 70.664 143.793 70.184C144.993 69.752 145.833 68.744 146.313 67.16H154.953C153.417 72.152 151.161 75.536 148.185 77.312C145.257 79.088 141.489 79.352 136.881 78.104ZM146.385 67.16L156.897 27.92H167.049L154.953 67.16H146.385ZM146.817 70.184L133.785 27.92H144.009L151.497 55.928L146.817 70.184ZM219.462 28.064V13.52H229.614V28.064H219.462ZM229.614 65H219.462V27.92H229.614V65ZM250.494 51.824H240.342V41.096H250.494V51.824ZM240.342 41.096C240.342 39.128 239.886 37.592 238.974 36.488C238.062 35.336 236.814 34.76 235.23 34.76L238.182 26.768C240.534 26.768 242.622 27.392 244.446 28.64C246.318 29.888 247.782 31.592 248.838 33.752C249.942 35.912 250.494 38.36 250.494 41.096H240.342ZM226.446 41.6C226.446 38.768 226.95 36.248 227.958 34.04C229.014 31.784 230.43 30.008 232.206 28.712C233.982 27.416 235.974 26.768 238.182 26.768L235.23 34.76C233.55 34.76 232.182 35.384 231.126 36.632C230.118 37.88 229.614 39.536 229.614 41.6H226.446ZM240.342 51.824H250.494C250.494 54.56 249.942 57.008 248.838 59.168C247.782 61.328 246.318 63.032 244.446 64.28C242.622 65.528 240.534 66.152 238.182 66.152L235.23 58.16C236.814 58.16 238.062 57.608 238.974 56.504C239.886 55.352 240.342 53.792 240.342 51.824ZM226.446 51.248H229.614C229.614 53.36 230.118 55.04 231.126 56.288C232.182 57.536 233.55 58.16 235.23 58.16L238.182 66.152C235.974 66.152 233.982 65.504 232.206 64.208C230.43 62.864 229.014 61.088 227.958 58.88C226.95 56.624 226.446 54.08 226.446 51.248ZM280.253 27.92V65H270.101V27.92H280.253ZM259.373 27.92V51.896H249.221V27.92H259.373ZM259.373 51.824C259.373 53.792 259.829 55.352 260.741 56.504C261.653 57.608 262.901 58.16 264.485 58.16L261.533 66.152C259.181 66.152 257.069 65.528 255.197 64.28C253.373 63.032 251.909 61.328 250.805 59.168C249.749 57.008 249.221 54.56 249.221 51.824H259.373ZM273.269 51.248C273.269 54.08 272.741 56.624 271.685 58.88C270.677 61.088 269.285 62.864 267.509 64.208C265.733 65.504 263.741 66.152 261.533 66.152L264.485 58.16C266.165 58.16 267.509 57.536 268.517 56.288C269.573 55.04 270.101 53.36 270.101 51.248H273.269ZM298.348 54.92C298.348 53.96 297.892 53.168 296.98 52.544C296.116 51.872 294.988 51.272 293.596 50.744C292.204 50.168 290.74 49.568 289.204 48.944C287.668 48.272 286.18 47.48 284.74 46.568C283.348 45.656 282.22 44.528 281.356 43.184C280.492 41.792 280.06 40.112 280.06 38.144C280.06 38.144 280.372 38.144 280.996 38.144C281.668 38.144 282.46 38.144 283.372 38.144C284.332 38.144 285.292 38.144 286.252 38.144C287.212 38.144 288.004 38.144 288.628 38.144C289.3 38.144 289.636 38.144 289.636 38.144C289.636 39.104 290.068 39.92 290.932 40.592C291.844 41.216 292.996 41.816 294.388 42.392C295.78 42.92 297.244 43.52 298.78 44.192C300.364 44.816 301.852 45.584 303.244 46.496C304.636 47.408 305.764 48.536 306.628 49.88C307.54 51.224 307.996 52.904 307.996 54.92C307.996 54.92 307.66 54.92 306.988 54.92C306.316 54.92 305.5 54.92 304.54 54.92C303.628 54.92 302.692 54.92 301.732 54.92C300.772 54.92 299.956 54.92 299.284 54.92C298.66 54.92 298.348 54.92 298.348 54.92ZM293.596 66.152V58.16C295.036 58.16 296.188 57.872 297.052 57.296C297.916 56.672 298.348 55.88 298.348 54.92H307.996C307.996 57.176 307.396 59.168 306.196 60.896C305.044 62.576 303.388 63.872 301.228 64.784C299.116 65.696 296.572 66.152 293.596 66.152ZM280.06 38.144C280.06 35.984 280.636 34.04 281.788 32.312C282.988 30.584 284.62 29.24 286.684 28.28C288.748 27.272 291.052 26.768 293.596 26.768V34.688C292.492 34.688 291.556 35.024 290.788 35.696C290.02 36.368 289.636 37.184 289.636 38.144H280.06ZM288.34 52.328C288.58 54.2 289.18 55.64 290.14 56.648C291.1 57.656 292.276 58.16 293.668 58.16V66.152C291.124 66.152 288.844 65.672 286.828 64.712C284.812 63.704 283.156 62.288 281.86 60.464C280.612 58.592 279.772 56.432 279.34 53.984L288.34 52.328ZM298.924 40.592C298.684 38.672 298.084 37.208 297.124 36.2C296.164 35.192 294.988 34.688 293.596 34.688V26.768C296.14 26.768 298.42 27.272 300.436 28.28C302.452 29.24 304.108 30.632 305.404 32.456C306.7 34.232 307.54 36.392 307.924 38.936L298.924 40.592ZM307.777 65V27.92H317.929V65H307.777ZM312.817 22.952C311.185 22.952 309.817 22.424 308.713 21.368C307.657 20.264 307.129 18.896 307.129 17.264C307.129 15.632 307.657 14.264 308.713 13.16C309.817 12.008 311.185 11.432 312.817 11.432C314.449 11.432 315.817 12.008 316.921 13.16C318.073 14.264 318.649 15.632 318.649 17.264C318.649 18.896 318.073 20.264 316.921 21.368C315.817 22.424 314.449 22.952 312.817 22.952ZM320.108 65V27.92H330.26V65H320.108ZM340.988 65V41.024H351.14V65H340.988ZM340.988 41.096C340.988 39.128 340.532 37.592 339.62 36.488C338.708 35.336 337.46 34.76 335.876 34.76L338.828 26.768C341.18 26.768 343.268 27.392 345.092 28.64C346.964 29.888 348.428 31.592 349.484 33.752C350.588 35.912 351.14 38.36 351.14 41.096H340.988ZM327.092 41.6C327.092 38.768 327.596 36.248 328.604 34.04C329.66 31.784 331.076 30.008 332.852 28.712C334.628 27.416 336.62 26.768 338.828 26.768L335.876 34.76C334.196 34.76 332.828 35.384 331.772 36.632C330.764 37.88 330.26 39.536 330.26 41.6H327.092ZM355.107 49.088V43.184H380.451V49.088H355.107ZM364.971 66.152V58.232H365.619V66.152H364.971ZM349.779 50.024V42.896H359.931V50.024H349.779ZM370.299 43.184V41.6H380.451V43.184H370.299ZM380.451 41.6H370.299C370.299 39.488 369.819 37.808 368.859 36.56C367.899 35.312 366.603 34.688 364.971 34.688V26.768C367.947 26.768 370.587 27.416 372.891 28.712C375.243 30.008 377.091 31.784 378.435 34.04C379.779 36.248 380.451 38.768 380.451 41.6ZM370.947 52.328L379.947 53.984C379.563 56.48 378.723 58.64 377.427 60.464C376.131 62.288 374.475 63.704 372.459 64.712C370.443 65.672 368.163 66.152 365.619 66.152V58.232C367.011 58.232 368.187 57.728 369.147 56.72C370.107 55.664 370.707 54.2 370.947 52.328ZM349.779 42.968C349.779 39.848 350.451 37.088 351.795 34.688C353.139 32.24 354.939 30.32 357.195 28.928C359.499 27.488 362.115 26.768 365.043 26.768V34.688C363.411 34.688 362.139 35.432 361.227 36.92C360.363 38.36 359.931 40.376 359.931 42.968H349.779ZM349.779 49.952H359.931C359.931 52.544 360.363 54.584 361.227 56.072C362.139 57.512 363.411 58.232 365.043 58.232V66.152C362.115 66.152 359.499 65.456 357.195 64.064C354.939 62.624 353.139 60.68 351.795 58.232C350.451 55.784 349.779 53.024 349.779 49.952ZM397.376 54.92C397.376 53.96 396.92 53.168 396.008 52.544C395.144 51.872 394.016 51.272 392.624 50.744C391.232 50.168 389.768 49.568 388.232 48.944C386.696 48.272 385.208 47.48 383.768 46.568C382.376 45.656 381.248 44.528 380.384 43.184C379.52 41.792 379.088 40.112 379.088 38.144C379.088 38.144 379.4 38.144 380.024 38.144C380.696 38.144 381.488 38.144 382.4 38.144C383.36 38.144 384.32 38.144 385.28 38.144C386.24 38.144 387.032 38.144 387.656 38.144C388.328 38.144 388.664 38.144 388.664 38.144C388.664 39.104 389.096 39.92 389.96 40.592C390.872 41.216 392.024 41.816 393.416 42.392C394.808 42.92 396.272 43.52 397.808 44.192C399.392 44.816 400.88 45.584 402.272 46.496C403.664 47.408 404.792 48.536 405.656 49.88C406.568 51.224 407.024 52.904 407.024 54.92C407.024 54.92 406.688 54.92 406.016 54.92C405.344 54.92 404.528 54.92 403.568 54.92C402.656 54.92 401.72 54.92 400.76 54.92C399.8 54.92 398.984 54.92 398.312 54.92C397.688 54.92 397.376 54.92 397.376 54.92ZM392.624 66.152V58.16C394.064 58.16 395.216 57.872 396.08 57.296C396.944 56.672 397.376 55.88 397.376 54.92H407.024C407.024 57.176 406.424 59.168 405.224 60.896C404.072 62.576 402.416 63.872 400.256 64.784C398.144 65.696 395.6 66.152 392.624 66.152ZM379.088 38.144C379.088 35.984 379.664 34.04 380.816 32.312C382.016 30.584 383.648 29.24 385.712 28.28C387.776 27.272 390.08 26.768 392.624 26.768V34.688C391.52 34.688 390.584 35.024 389.816 35.696C389.048 36.368 388.664 37.184 388.664 38.144H379.088ZM387.368 52.328C387.608 54.2 388.208 55.64 389.168 56.648C390.128 57.656 391.304 58.16 392.696 58.16V66.152C390.152 66.152 387.872 65.672 385.856 64.712C383.84 63.704 382.184 62.288 380.888 60.464C379.64 58.592 378.8 56.432 378.368 53.984L387.368 52.328ZM397.952 40.592C397.712 38.672 397.112 37.208 396.152 36.2C395.192 35.192 394.016 34.688 392.624 34.688V26.768C395.168 26.768 397.448 27.272 399.464 28.28C401.48 29.24 403.136 30.632 404.432 32.456C405.728 34.232 406.568 36.392 406.952 38.936L397.952 40.592ZM423.926 54.92C423.926 53.96 423.47 53.168 422.558 52.544C421.694 51.872 420.566 51.272 419.174 50.744C417.782 50.168 416.318 49.568 414.782 48.944C413.246 48.272 411.758 47.48 410.318 46.568C408.926 45.656 407.798 44.528 406.934 43.184C406.07 41.792 405.638 40.112 405.638 38.144C405.638 38.144 405.95 38.144 406.574 38.144C407.246 38.144 408.038 38.144 408.95 38.144C409.91 38.144 410.87 38.144 411.83 38.144C412.79 38.144 413.582 38.144 414.206 38.144C414.878 38.144 415.214 38.144 415.214 38.144C415.214 39.104 415.646 39.92 416.51 40.592C417.422 41.216 418.574 41.816 419.966 42.392C421.358 42.92 422.822 43.52 424.358 44.192C425.942 44.816 427.43 45.584 428.822 46.496C430.214 47.408 431.342 48.536 432.206 49.88C433.118 51.224 433.574 52.904 433.574 54.92C433.574 54.92 433.238 54.92 432.566 54.92C431.894 54.92 431.078 54.92 430.118 54.92C429.206 54.92 428.27 54.92 427.31 54.92C426.35 54.92 425.534 54.92 424.862 54.92C424.238 54.92 423.926 54.92 423.926 54.92ZM419.174 66.152V58.16C420.614 58.16 421.766 57.872 422.63 57.296C423.494 56.672 423.926 55.88 423.926 54.92H433.574C433.574 57.176 432.974 59.168 431.774 60.896C430.622 62.576 428.966 63.872 426.806 64.784C424.694 65.696 422.15 66.152 419.174 66.152ZM405.638 38.144C405.638 35.984 406.214 34.04 407.366 32.312C408.566 30.584 410.198 29.24 412.262 28.28C414.326 27.272 416.63 26.768 419.174 26.768V34.688C418.07 34.688 417.134 35.024 416.366 35.696C415.598 36.368 415.214 37.184 415.214 38.144H405.638ZM413.918 52.328C414.158 54.2 414.758 55.64 415.718 56.648C416.678 57.656 417.854 58.16 419.246 58.16V66.152C416.702 66.152 414.422 65.672 412.406 64.712C410.39 63.704 408.734 62.288 407.438 60.464C406.19 58.592 405.35 56.432 404.918 53.984L413.918 52.328ZM424.502 40.592C424.262 38.672 423.662 37.208 422.702 36.2C421.742 35.192 420.566 34.688 419.174 34.688V26.768C421.718 26.768 423.998 27.272 426.014 28.28C428.03 29.24 429.686 30.632 430.982 32.456C432.278 34.232 433.118 36.392 433.502 38.936L424.502 40.592Z" fill="white"/>
<path d="M165.642 65.504V57.512H192.21V65.504H165.642ZM192.192 65.504V57.512H218.76V65.504H192.192Z" fill="#237C74"/>
</svg>
